# xmcd CD database file
#
# Track frame offsets:
#	150
#	13122
#	23807
#	37442
#	50882
#	60550
#	73297
#	85392
#	97487
#	108830
#	118552
#	129025
#	139690
#	150295
#	161532
#	174185
#	185990
#	201750
#	213742
#	234692
#	245110
#	255532
#	269072
#	279492
#	290665
#	300177
#	309605
#	321710
#	334487
#	347712
#
# Disc length: 4763 seconds
#
# Revision: 0
# Processed by: cddbd v1.5.2PL0 Copyright (c) Steve Scherf et al.
# Submitted via: CDex 1.51
#
DISCID=dd12991e
DTITLE=Slim Whitman - I'm A Lonely Wanderer CD1
DYEAR=1961
DGENRE=Country
TTITLE0=Cool Water
TTITLE1=A Lonesome Heart
TTITLE2=Wind
TTITLE3=Vaya Con Dios
TTITLE4=Ramona
TTITLE5=Just Call Me Lonesome
TTITLE6=It's A Sin
TTITLE7=I Love You Because
TTITLE8=Sail Along Silv'ry Moon
TTITLE9=Poor Little Angeline
TTITLE10=Remember Me (I'm The One Who Loves You)
TTITLE11=The Old Lamplighter
TTITLE12=I'd Climb The Highest Mountain
TTITLE13=For All We Know
TTITLE14=The Bells That Broke My Heart
TTITLE15=I'll Do As Much For You Someday
TTITLE16=Sweeter Than The Flowers
TTITLE17=Blue Eyes Crying In The Rain
TTITLE18=Eileen
TTITLE19=Straight From Heaven
TTITLE20=Most Beautiful
TTITLE21=Molly Darlin'
TTITLE22=It Sure Looks Lonesome Outside
TTITLE23=Annie Laurie
TTITLE24=The Old Spinning Wheel
TTITLE25=In A Hundred Years Or More
TTITLE26=Yesterday's Love
TTITLE27=Ten Thousand Teardrops
TTITLE28=Just Out Of Reach (Of My Two Open Arms)
TTITLE29=Valley Of Tears
EXTD=YEAR: 1961
EXTT0=
EXTT1=
EXTT2=
EXTT3=
EXTT4=
EXTT5=
EXTT6=
EXTT7=
EXTT8=
EXTT9=
EXTT10=
EXTT11=
EXTT12=
EXTT13=
EXTT14=
EXTT15=
EXTT16=
EXTT17=
EXTT18=
EXTT19=
EXTT20=
EXTT21=
EXTT22=
EXTT23=
EXTT24=
EXTT25=
EXTT26=
EXTT27=
EXTT28=
EXTT29=
PLAYORDER=
